<?xml version="1.0" encoding="UTF-8"?><svg id="Layer_1" xmlns="http://www.w3.org/2000/svg" viewBox="0 0 1370.54 586.87"><path d="M274.83,128.88v-23.57l-.07,1c0-42.74-35.85-78.39-80.52-78.39S113.37,62.56,113.37,105.31h0v23.65C50.37,131.69,.12,183.62,.12,247.3v152.55c0,.87,.01,1.74,.03,2.61h-.03v115.84H112.37v-.16c2.06,.11,4.13,.16,6.22,.16h153.24c65.42,0,118.46-53.04,118.46-118.46V247.3c0-3.7-.17-7.36-.5-10.98-5.45-59.29-54.59-105.93-114.94-107.44ZM194.31,53.52c30.16,0,54.4,22.74,56.3,51.14l-.05-.26v24.44h-112.92v-23.77h-.1c1.55-28.72,26.37-51.55,56.76-51.55Zm140.86,325.91c0,46.91-38.03,84.94-84.94,84.94h-109.88c-1.5,0-2.98-.04-4.46-.12v.11H55.4v-83.07h.02c-.01-.62-.02-1.25-.02-1.87v-109.39c0-37.49,24.28-69.3,57.97-80.57v45.47c-11.42,4.05-19.55,14.55-19.55,26.86,0,15.82,13.43,28.65,30,28.65s30-12.83,30-28.65c0-11.06-6.57-20.65-16.18-25.43v-51.23c.9-.03,1.8-.05,2.7-.05h109.88c.11,0,.22,0,.33,0v49.17c-11.42,4.05-19.55,14.55-19.55,26.86,0,15.82,13.43,28.65,30,28.65s30-12.83,30-28.65c0-11.06-6.57-20.65-16.18-25.43v-46.98c34.92,10.55,60.34,42.96,60.34,81.32v109.39Z" style="fill:#4554a4; stroke:#231f20; stroke-miterlimit:10; stroke-width:.25px;"/><text transform="translate(463.8 483.11)" style="fill:#58595d; font-family:Maia, Maia; font-size:500px;"><tspan x="0" y="0">muua</tspan></text></svg>