<?xml version="1.0" encoding="UTF-8"?>
<svg id="Layer_1" data-name="Layer 1" xmlns="http://www.w3.org/2000/svg" viewBox="0 0 460.94 578.47">
  <defs>
    <style>
      .cls-1 {
        fill: #4555a5;
        stroke: #231f20;
        stroke-miterlimit: 10;
        stroke-width: .25px;
      }
    </style>
  </defs>
  <path class="cls-1" d="M324.69,119.17v-27.79l-.08,1.18C324.61,42.16,282.35,.12,229.68,.12s-95.36,40.86-95.36,91.25h.01v27.89C60.04,122.48,.79,183.72,.79,258.8v179.87c0,1.03,.02,2.06,.04,3.08h-.04v136.59H133.14v-.19c2.43,.13,4.87,.19,7.33,.19h180.68c77.14,0,139.67-62.53,139.67-139.67v-179.87c0-4.36-.2-8.68-.59-12.95-6.43-69.91-64.37-124.9-135.53-126.68ZM229.75,30.32c35.56,0,64.14,26.81,66.38,60.3l-.06-.31v28.82H162.94v-28.03h-.12c1.83-33.86,31.09-60.78,66.93-60.78Zm166.09,384.28c0,55.31-44.84,100.16-100.15,100.16H166.13c-1.76,0-3.51-.05-5.26-.14v.13H65.97v-97.94h.03c-.02-.73-.03-1.47-.03-2.21v-128.98c0-44.2,28.63-81.71,68.36-95v53.62c-13.46,4.78-23.05,17.15-23.05,31.67,0,18.66,15.84,33.78,35.37,33.78s35.37-15.12,35.37-33.78c0-13.04-7.74-24.35-19.08-29.98v-60.41c1.06-.03,2.12-.06,3.18-.06h129.56c.13,0,.26,0,.39,0v57.97c-13.46,4.78-23.05,17.15-23.05,31.67,0,18.66,15.84,33.78,35.37,33.78s35.37-15.12,35.37-33.78c0-13.04-7.74-24.35-19.08-29.98v-55.4c41.17,12.44,71.15,50.66,71.15,95.88v128.98Z"/>
</svg>