<?xml version="1.0" encoding="UTF-8"?><svg id="Layer_1" xmlns="http://www.w3.org/2000/svg" viewBox="0 0 1355.89 518.43"><path d="M274.83,128.88v-23.57l-.07,1c0-42.74-35.85-78.39-80.52-78.39S113.37,62.56,113.37,105.31h0v23.65C50.37,131.69,.12,183.62,.12,247.3v152.55c0,.87,.01,1.74,.03,2.61h-.03v115.84H112.37v-.16c2.06,.11,4.13,.16,6.22,.16h153.24c65.42,0,118.46-53.04,118.46-118.46V247.3c0-3.7-.17-7.36-.5-10.98-5.45-59.29-54.59-105.93-114.94-107.44ZM194.31,53.52c30.16,0,54.4,22.74,56.3,51.14l-.05-.26v24.44h-112.92v-23.77h-.1c1.55-28.72,26.37-51.55,56.76-51.55Zm140.86,325.91c0,46.91-38.03,84.94-84.94,84.94h-109.88c-1.5,0-2.98-.04-4.46-.12v.11H55.4v-83.07h.02c-.01-.62-.02-1.25-.02-1.87v-109.39c0-37.49,24.28-69.3,57.97-80.57v45.47c-11.42,4.05-19.55,14.55-19.55,26.86,0,15.82,13.43,28.65,30,28.65s30-12.83,30-28.65c0-11.06-6.57-20.65-16.18-25.43v-51.23c.9-.03,1.8-.05,2.7-.05h109.88c.11,0,.22,0,.33,0v49.17c-11.42,4.05-19.55,14.55-19.55,26.86,0,15.82,13.43,28.65,30,28.65s30-12.83,30-28.65c0-11.06-6.57-20.65-16.18-25.43v-46.98c34.92,10.55,60.34,42.96,60.34,81.32v109.39Z" style="fill:#4554a4; stroke:#231f20; stroke-miterlimit:10; stroke-width:.25px;"/><g><path d="M660.58,291.7c20.18,0,37.48,7.2,51.88,21.61s21.61,31.78,21.61,52.12v117.68h-39.06v-117.68c0-9.6-3.38-17.78-10.13-24.54-6.76-6.75-14.85-10.13-24.29-10.13s-17.78,3.38-24.54,10.13-10.13,14.93-10.13,24.54v117.68h-39.06v-117.68c0-9.6-3.38-17.78-10.13-24.54-6.76-6.75-14.93-10.13-24.54-10.13s-17.78,3.38-24.54,10.13-10.13,14.93-10.13,24.54v117.68h-39.06v-117.68c0-20.34,7.2-37.72,21.61-52.12s31.78-21.61,52.12-21.61,39.39,7.9,54.2,23.68c14.65-15.79,32.71-23.68,54.2-23.68Z" style="fill:#58595d;"/><path d="M895.44,398.39v-107.18h39.06v107.18c0,15.62-3.87,29.83-11.6,42.6-7.73,12.78-18.07,22.99-31.01,30.64-12.94,7.65-27.22,11.47-42.85,11.47s-30.15-3.82-43.09-11.47c-12.94-7.65-23.28-17.86-31.01-30.64-7.73-12.78-11.6-26.98-11.6-42.6v-107.18h39.06v107.18c0,12.7,4.55,23.56,13.67,32.59,9.11,9.03,20.1,13.55,32.96,13.55s23.6-4.52,32.71-13.55c9.11-9.03,13.67-19.9,13.67-32.59Z" style="fill:#58595d;"/><path d="M1095.88,398.39v-107.18h39.06v107.18c0,15.62-3.87,29.83-11.6,42.6-7.73,12.78-18.07,22.99-31.01,30.64-12.94,7.65-27.22,11.47-42.85,11.47s-30.15-3.82-43.09-11.47c-12.94-7.65-23.28-17.86-31.01-30.64-7.73-12.78-11.6-26.98-11.6-42.6v-107.18h39.06v107.18c0,12.7,4.55,23.56,13.67,32.59,9.11,9.03,20.1,13.55,32.96,13.55s23.6-4.52,32.71-13.55c9.11-9.03,13.67-19.9,13.67-32.59Z" style="fill:#58595d;"/><path d="M1259.94,291.46c17.74,0,33.85,4.31,48.34,12.94,14.48,8.63,26.04,20.18,34.67,34.67,8.62,14.49,12.94,30.6,12.94,48.34v95.7h-95.7c-17.58,0-33.65-4.31-48.22-12.94-14.57-8.62-26.17-20.22-34.79-34.79-8.63-14.56-12.94-30.64-12.94-48.22s4.31-33.61,12.94-48.1c8.62-14.48,20.18-26.04,34.67-34.67,14.48-8.62,30.52-12.94,48.1-12.94Zm56.88,152.59v-56.64c0-15.79-5.54-29.21-16.6-40.28-11.07-11.07-24.5-16.6-40.28-16.6s-28.97,5.54-40.04,16.6-16.6,24.41-16.6,40.04,5.57,29.01,16.72,40.16c11.15,11.15,24.54,16.72,40.16,16.72h56.64Z" style="fill:#58595d;"/></g></svg>